<svg width="27" height="27" viewBox="0 0 27 27" fill="none" xmlns="http://www.w3.org/2000/svg">
<path d="M13.5 0C10.83 0 8.21987 0.791761 5.99981 2.27516C3.77974 3.75856 2.04941 5.86697 1.02763 8.33377C0.00584927 10.8006 -0.261496 13.515 0.259405 16.1337C0.780305 18.7525 2.06605 21.1579 3.95406 23.0459C5.84207 24.9339 8.24754 26.2197 10.8663 26.7406C13.485 27.2615 16.1994 26.9942 18.6662 25.9724C21.133 24.9506 23.2414 23.2203 24.7248 21.0002C26.2082 18.7801 27 16.17 27 13.5C27 12.81 26.94 12.12 26.85 11.46C26.1005 12.511 25.1102 13.3672 23.9619 13.957C22.8137 14.5468 21.5409 14.853 20.25 14.85C18.5328 14.85 16.86 14.3046 15.4728 13.2925C14.0856 12.2803 13.0558 10.8537 12.5318 9.21841C12.0078 7.58311 12.0168 5.82364 12.5575 4.19378C13.0982 2.56393 14.1425 1.14792 15.54 0.15C14.88 0.0599998 14.19 0 13.5 0V0Z" fill="#343135"/>
</svg>
