<svg width="27" height="27" viewBox="0 0 27 27" fill="none" xmlns="http://www.w3.org/2000/svg">
<path d="M13.5 7.36364C10.1127 7.36364 7.36364 10.1127 7.36364 13.5C7.36364 16.8873 10.1127 19.6364 13.5 19.6364C16.8873 19.6364 19.6364 16.8873 19.6364 13.5C19.6364 10.1127 16.8873 7.36364 13.5 7.36364ZM1.22727 14.7273H3.68182C4.35682 14.7273 4.90909 14.175 4.90909 13.5C4.90909 12.825 4.35682 12.2727 3.68182 12.2727H1.22727C0.552273 12.2727 0 12.825 0 13.5C0 14.175 0.552273 14.7273 1.22727 14.7273ZM23.3182 14.7273H25.7727C26.4477 14.7273 27 14.175 27 13.5C27 12.825 26.4477 12.2727 25.7727 12.2727H23.3182C22.6432 12.2727 22.0909 12.825 22.0909 13.5C22.0909 14.175 22.6432 14.7273 23.3182 14.7273ZM12.2727 1.22727V3.68182C12.2727 4.35682 12.825 4.90909 13.5 4.90909C14.175 4.90909 14.7273 4.35682 14.7273 3.68182V1.22727C14.7273 0.552273 14.175 0 13.5 0C12.825 0 12.2727 0.552273 12.2727 1.22727ZM12.2727 23.3182V25.7727C12.2727 26.4477 12.825 27 13.5 27C14.175 27 14.7273 26.4477 14.7273 25.7727V23.3182C14.7273 22.6432 14.175 22.0909 13.5 22.0909C12.825 22.0909 12.2727 22.6432 12.2727 23.3182ZM6.12409 4.39364C6.01055 4.27986 5.87569 4.1896 5.72722 4.12801C5.57875 4.06643 5.4196 4.03473 5.25886 4.03473C5.09813 4.03473 4.93897 4.06643 4.79051 4.12801C4.64204 4.1896 4.50718 4.27986 4.39364 4.39364C4.27986 4.50718 4.1896 4.64204 4.12801 4.79051C4.06643 4.93897 4.03473 5.09813 4.03473 5.25886C4.03473 5.4196 4.06643 5.57875 4.12801 5.72722C4.1896 5.87569 4.27986 6.01055 4.39364 6.12409L5.69455 7.425C6.17318 7.90364 6.95864 7.90364 7.425 7.425C7.89136 6.94636 7.90364 6.16091 7.425 5.69455L6.12409 4.39364ZM21.3055 19.575C21.1919 19.4612 21.0571 19.371 20.9086 19.3094C20.7601 19.2478 20.601 19.2161 20.4402 19.2161C20.2795 19.2161 20.1203 19.2478 19.9719 19.3094C19.8234 19.371 19.6885 19.4612 19.575 19.575C19.4612 19.6885 19.371 19.8234 19.3094 19.9719C19.2478 20.1203 19.2161 20.2795 19.2161 20.4402C19.2161 20.601 19.2478 20.7601 19.3094 20.9086C19.371 21.0571 19.4612 21.1919 19.575 21.3055L20.8759 22.6064C21.3545 23.085 22.14 23.085 22.6064 22.6064C22.7201 22.4928 22.8104 22.358 22.872 22.2095C22.9336 22.061 22.9653 21.9019 22.9653 21.7411C22.9653 21.5804 22.9336 21.4212 22.872 21.2728C22.8104 21.1243 22.7201 20.9894 22.6064 20.8759L21.3055 19.575ZM22.6064 6.12409C22.7201 6.01055 22.8104 5.87569 22.872 5.72722C22.9336 5.57875 22.9653 5.4196 22.9653 5.25886C22.9653 5.09813 22.9336 4.93897 22.872 4.79051C22.8104 4.64204 22.7201 4.50718 22.6064 4.39364C22.4928 4.27986 22.358 4.1896 22.2095 4.12801C22.061 4.06643 21.9019 4.03473 21.7411 4.03473C21.5804 4.03473 21.4212 4.06643 21.2728 4.12801C21.1243 4.1896 20.9894 4.27986 20.8759 4.39364L19.575 5.69455C19.0964 6.17318 19.0964 6.95864 19.575 7.425C20.0536 7.89136 20.8391 7.90364 21.3055 7.425L22.6064 6.12409ZM7.425 21.3055C7.53877 21.1919 7.62904 21.0571 7.69062 20.9086C7.75221 20.7601 7.78391 20.601 7.78391 20.4402C7.78391 20.2795 7.75221 20.1203 7.69062 19.9719C7.62904 19.8234 7.53877 19.6885 7.425 19.575C7.31146 19.4612 7.1766 19.371 7.02813 19.3094C6.87966 19.2478 6.72051 19.2161 6.55977 19.2161C6.39904 19.2161 6.23988 19.2478 6.09142 19.3094C5.94295 19.371 5.80808 19.4612 5.69455 19.575L4.39364 20.8759C3.915 21.3545 3.915 22.14 4.39364 22.6064C4.87227 23.0727 5.65773 23.085 6.12409 22.6064L7.425 21.3055V21.3055Z" fill="#DBDCDD"/>
</svg>
